<svg xmlns="http://www.w3.org/2000/svg" width="101" height="101" viewBox="0 0 101 101" class="affiliations-svg">
  <g id="affiliations" transform="translate(-1.6 -1.8)">
    <path id="Path_28" data-name="Path 28" d="M94.448,44.648a7.549,7.549,0,0,0-7.338,5.66H77.572a24.994,24.994,0,0,0-6.08-14.57l6.813-6.813a7.846,7.846,0,0,0,3.774,1.048,7.652,7.652,0,1,0-7.652-7.652,7.533,7.533,0,0,0,1.048,3.774l-6.813,6.813a25.686,25.686,0,0,0-14.57-6.08V17.29a7.549,7.549,0,0,0,5.66-7.338,7.652,7.652,0,0,0-15.3,0,7.549,7.549,0,0,0,5.66,7.338v9.539a24.994,24.994,0,0,0-14.57,6.08l-6.813-6.813a7.846,7.846,0,0,0,1.048-3.774,7.652,7.652,0,1,0-7.652,7.652,7.533,7.533,0,0,0,3.774-1.048l6.813,6.813a24.994,24.994,0,0,0-6.08,14.57H17.09a7.549,7.549,0,0,0-7.338-5.66,7.652,7.652,0,1,0,0,15.3,7.549,7.549,0,0,0,7.338-5.66h9.539a24.994,24.994,0,0,0,6.08,14.57l-6.813,6.813a7.846,7.846,0,0,0-3.774-1.048,7.652,7.652,0,1,0,7.652,7.652,7.533,7.533,0,0,0-1.048-3.774l6.813-6.813a25.686,25.686,0,0,0,14.57,6.08V87.31a7.549,7.549,0,0,0-5.66,7.338,7.652,7.652,0,1,0,15.3,0,7.549,7.549,0,0,0-5.66-7.338V77.772a24.994,24.994,0,0,0,14.57-6.08l6.813,6.813a7.846,7.846,0,0,0-1.048,3.774,7.652,7.652,0,1,0,7.652-7.652,7.533,7.533,0,0,0-3.774,1.048l-6.813-6.813a24.994,24.994,0,0,0,6.08-14.57H87.11a7.549,7.549,0,0,0,7.338,5.66,7.652,7.652,0,1,0,0-15.3ZM82.184,18.757a3.646,3.646,0,0,1,3.669,3.669,3.714,3.714,0,0,1-3.669,3.669,3.669,3.669,0,0,1,0-7.338Zm-33.543-8.6A3.646,3.646,0,0,1,52.31,6.493a3.714,3.714,0,0,1,3.669,3.669,3.669,3.669,0,1,1-7.338,0ZM18.767,22.426a3.646,3.646,0,0,1,3.669-3.669,3.669,3.669,0,1,1,0,7.338A3.646,3.646,0,0,1,18.767,22.426Zm-8.6,33.543A3.646,3.646,0,0,1,6.5,52.3a3.669,3.669,0,1,1,3.669,3.669ZM22.435,85.843a3.669,3.669,0,1,1,0-7.338A3.714,3.714,0,0,1,26.1,82.174,3.582,3.582,0,0,1,22.435,85.843Zm33.543,8.6a3.646,3.646,0,0,1-3.669,3.669,3.669,3.669,0,1,1,3.669-3.669ZM85.853,82.174a3.669,3.669,0,1,1-3.669-3.669A3.582,3.582,0,0,1,85.853,82.174ZM52.31,73.788A21.488,21.488,0,1,1,73.8,52.3,21.518,21.518,0,0,1,52.31,73.788Zm42.138-17.82A3.646,3.646,0,0,1,90.779,52.3a3.669,3.669,0,1,1,7.338,0A3.646,3.646,0,0,1,94.448,55.969Z" transform="translate(0)"/>
    <path id="Path_29" data-name="Path 29" d="M55.9,47.2a8.134,8.134,0,0,0,1.9-5,7.8,7.8,0,0,0-15.6,0,7.583,7.583,0,0,0,1.9,5,8.422,8.422,0,0,0-4.4,6.2L39,59.7a1.856,1.856,0,0,0,1.4,2A38.219,38.219,0,0,0,50,62.8a43.465,43.465,0,0,0,9.6-1.1,1.856,1.856,0,0,0,1.4-2l-.8-6.3A8.231,8.231,0,0,0,55.9,47.2Zm-5.9-9a4,4,0,1,1-4,4A4.012,4.012,0,0,1,50,38.2ZM42.9,58.5l.6-4.6A4.433,4.433,0,0,1,47.9,50h4.4a4.509,4.509,0,0,1,4.4,3.9l.6,4.6A38.733,38.733,0,0,1,42.9,58.5Z" transform="translate(2.313 2.204)"/>
  </g>
</svg>
