<svg xmlns="http://www.w3.org/2000/svg" xmlns:xlink="http://www.w3.org/1999/xlink" version="1.1" x="0px" y="0px" viewBox="0 0 50 50" enable-background="new 0 0 50 50" xml:space="preserve" stroke="#000000" stroke-width="1" class="svgs"><g><path d="M25,18.7c-2.3-3.1-6.9-2.6-8.5,1c-2,4.6,2.8,7.2,4.1,9l3.7,4.2c0.2,0.2,0.5,0.3,0.8,0.3c0,0,0,0,0,0c0.3,0,0.6-0.1,0.8-0.3   c0,0,2.4-2.7,3.7-4.2c2.7-3.1,5.7-4.8,4.2-8.8C32.1,16.1,27.3,15.6,25,18.7z M27.9,27.5c-0.8,1-2.1,2.4-2.9,3.4l-3-3.4   c-1.4-2.1-5.1-3.7-3.7-6.9c1.1-2.5,4.3-2.4,5.4-0.1c0.2,0.5,0.7,0.8,1.3,0.8c0,0,0,0,0,0c0.6,0,1.1-0.3,1.3-0.8   c1.2-2.3,4.4-2.4,5.5,0.3C32.8,23.4,30.8,24.2,27.9,27.5z"/><path d="M46,7.4c-3.5-2.9-8.8-2.7-13.2-1.7C30.6,2.7,27.9,1,25,1s-5.6,1.7-7.8,4.7C12.8,4.7,7.5,4.5,4,7.4c-5.2,4.3-2.8,12,1,17.6   c-3.7,5.6-6.1,13.3-1,17.6c3.5,2.9,8.8,2.7,13.2,1.7c2.2,2.9,4.8,4.7,7.8,4.7s5.6-1.7,7.8-4.7c4.4,1,9.8,1.1,13.2-1.7   c5.2-4.3,2.8-12-1-17.6C48.8,19.4,51.2,11.7,46,7.4z M25,3c2,0,4,1.2,5.6,3.2c-1.8,0.5-3.7,1.3-5.6,2.1c-1.9-0.9-3.8-1.6-5.6-2.1   C21,4.2,23,3,25,3z M36,25c0,2.7-0.3,5.4-0.7,7.8c-0.1,0.1-0.2,0.1-0.3,0.2c-3.2,2.6-6.6,4.8-10,6.5c-3.4-1.7-6.8-3.8-10-6.5   c-0.1-0.1-0.2-0.1-0.3-0.2C14.3,30.4,14,27.7,14,25s0.3-5.4,0.7-7.8c0.1-0.1,0.2-0.1,0.3-0.2c3.2-2.6,6.6-4.8,10-6.5   c3.4,1.7,6.8,3.8,10,6.5c0.1,0.1,0.2,0.1,0.3,0.2C35.7,19.6,36,22.3,36,25z M37.6,19.3c1.9,1.8,3.6,3.8,5,5.7   c-1.4,1.9-3.1,3.8-5,5.7C37.9,28.9,38,27,38,25C38,23,37.9,21.1,37.6,19.3z M34.5,36c-0.7,2.3-1.6,4.4-2.6,6.1   c-1.5-0.4-3-0.9-4.5-1.5C29.8,39.2,32.2,37.7,34.5,36z M22.7,40.5c-1.5,0.6-3,1.2-4.5,1.5c-1-1.7-1.9-3.8-2.6-6.1   C17.8,37.7,20.2,39.2,22.7,40.5z M12.4,30.7c-1.9-1.8-3.6-3.8-5-5.7c1.4-1.9,3.1-3.8,5-5.7C12.1,21.1,12,23,12,25   C12,27,12.1,28.9,12.4,30.7z M15.5,14c0.7-2.3,1.6-4.4,2.6-6.1c1.5,0.4,3,0.9,4.5,1.5C20.2,10.8,17.8,12.3,15.5,14z M27.3,9.5   c1.5-0.6,3-1.2,4.5-1.5c1,1.7,1.9,3.8,2.6,6.1C32.2,12.3,29.8,10.8,27.3,9.5z M5.2,8.9C8,6.6,12.5,6.8,16.1,7.4   c-1.4,2.4-2.5,5.4-3.2,8.7c-2.6,2.3-4.9,4.7-6.7,7.1C3.3,18.8,1.2,12.3,5.2,8.9z M5.2,41.1c-4.1-3.4-1.9-9.8,0.9-14.3   c1.8,2.4,4.1,4.8,6.7,7.1c0.7,3.4,1.8,6.3,3.2,8.7C12.5,43.2,8,43.4,5.2,41.1z M25,47c-2,0-4-1.2-5.6-3.2c1.8-0.5,3.7-1.3,5.6-2.1   c1.9,0.9,3.8,1.6,5.6,2.1C29,45.8,27,47,25,47z M44.8,41.1c-2.8,2.3-7.3,2.2-10.8,1.5c1.4-2.4,2.5-5.4,3.2-8.7   c2.6-2.3,4.9-4.7,6.7-7.1C46.7,31.2,48.8,37.7,44.8,41.1z M37.1,16.2c-0.7-3.4-1.8-6.3-3.2-8.7c3.5-0.7,8-0.8,10.8,1.5   c4.1,3.4,1.9,9.8-0.9,14.3C42,20.8,39.7,18.4,37.1,16.2z"/></g></svg>