<svg xmlns="http://www.w3.org/2000/svg" xmlns:xlink="http://www.w3.org/1999/xlink" version="1.1" baseProfile="basic" x="0px" y="0px" viewBox="0 0 90 112.5" xml:space="preserve" class="contact-us-svg"><g><path d="M64.82,56.809l-1.005-0.184V41.193c1.425-0.094,2.558-1.271,2.558-2.719v-7.791c0-1.448-1.133-2.625-2.558-2.719v-4.148   C63.815,13.441,55.375,5,45,5c-10.375,0-18.815,8.441-18.815,18.815v4.148c-1.424,0.094-2.558,1.271-2.558,2.719v7.791   c0,1.448,1.134,2.625,2.558,2.719v15.432l-1.006,0.184c-4.129,0.755-7.126,4.35-7.126,8.548v16.411c0,1.782,1.45,3.232,3.232,3.232   h47.431c1.782,0,3.232-1.45,3.232-3.232V65.357C71.947,61.159,68.95,57.564,64.82,56.809z M57.786,55.523   c-2.301-0.421-3.971-2.424-3.971-4.764v-1.054c0.35-0.3,0.705-0.593,1.036-0.92c0.31-0.307,0.6-0.636,0.89-0.964   c3.286-0.579,5.85-3.264,6.242-6.61h0.056V56.3L57.786,55.523z M30.573,27.822c9.664-1.371,15.777-3.521,19.548-6.891   c2.711,3.084,5.267,5.086,9.273,7.281l-0.703,8.415c-0.168,1.991-0.67,3.921-1.496,5.737c-0.435,0.957-0.961,1.88-1.564,2.745   c-0.249,0.357-0.52,0.698-0.795,1.036c-0.139,0.01-0.278,0.021-0.42,0.021H48.74c-0.491,0-0.889,0.398-0.889,0.889   s0.398,0.889,0.889,0.889h4.384c-1.699,1.563-3.649,2.772-5.832,3.562c-1.477,0.535-3.106,0.535-4.583,0   c-6.361-2.299-10.835-8.138-11.398-14.878L30.573,27.822z M59.541,41.211h0.644c-0.25,1.63-1.171,3.041-2.477,3.935   c0.405-0.663,0.785-1.342,1.106-2.047C59.094,42.482,59.329,41.85,59.541,41.211z M42.105,53.177   c0.934,0.338,1.914,0.506,2.895,0.506s1.962-0.168,2.896-0.506c1.485-0.536,2.865-1.259,4.154-2.125   c0.119,2.718,1.882,5.057,4.401,5.945C54.031,63.604,50.196,69.015,45,73.074c-5.196-4.058-9.031-9.47-11.45-16.077   c2.517-0.888,4.28-3.225,4.401-5.941C39.23,51.917,40.617,52.64,42.105,53.177z M64.595,30.682v7.791   c0,0.529-0.431,0.96-0.959,0.96h-3.602c0.199-0.873,0.352-1.758,0.428-2.658l0.589-7.052h2.585   C64.165,29.723,64.595,30.153,64.595,30.682z M45,6.778c9.394,0,17.037,7.643,17.037,17.037v4.13H61.2l0.014-0.164   c0.03-0.353-0.153-0.69-0.465-0.858c-4.393-2.354-6.979-4.41-9.883-7.854c-0.161-0.191-0.396-0.306-0.645-0.315   c-0.266-0.009-0.493,0.086-0.668,0.264c-3.502,3.556-9.686,5.763-20.053,7.156c-0.469,0.063-0.807,0.483-0.767,0.955l0.068,0.815   h-0.837v-4.13C27.963,14.421,35.605,6.778,45,6.778z M25.405,38.474v-7.791c0-0.529,0.43-0.959,0.959-0.959h2.585l0.59,7.052   c0.075,0.903,0.217,1.79,0.416,2.658h-3.59C25.835,39.433,25.405,39.003,25.405,38.474z M27.963,41.211h2.498   c1.106,3.312,3.091,6.26,5.725,8.516v1.033c0,2.339-1.671,4.343-3.972,4.764L27.963,56.3V41.211z M25.499,58.557l6.307-1.153   c2.613,7.252,6.86,13.146,12.66,17.5l0.533,0.4l0.533-0.4c5.801-4.354,10.047-10.247,12.66-17.5l6.307,1.153   c3.285,0.602,5.668,3.461,5.668,6.799v0.555l-7.79,7.02c-1.659,1.495-2.61,3.633-2.61,5.865v4.425H30.231v-4.425   c0-2.234-0.952-4.372-2.611-5.865l-7.79-7.02v-0.555C19.831,62.018,22.215,59.159,25.499,58.557z M19.831,81.768V68.305l6.6,5.948   c1.285,1.158,2.023,2.814,2.023,4.544v4.425h-7.169C20.483,83.222,19.831,82.57,19.831,81.768z M68.715,83.222h-7.168v-4.425   c0-1.73,0.737-3.386,2.022-4.544l6.601-5.948v13.464C70.169,82.57,69.517,83.222,68.715,83.222z"/><path d="M36.306,32.207c1.786-0.858,3.524-0.858,5.31,0c0.124,0.06,0.255,0.088,0.384,0.088c0.331,0,0.649-0.186,0.802-0.504   c0.213-0.443,0.026-0.974-0.417-1.186c-2.272-1.091-4.577-1.091-6.849,0c-0.443,0.212-0.629,0.743-0.417,1.186   C35.333,32.234,35.865,32.42,36.306,32.207z"/><path d="M47.862,32.207c1.786-0.857,3.523-0.857,5.31,0c0.124,0.059,0.255,0.088,0.384,0.088c0.332,0,0.649-0.186,0.802-0.504   c0.213-0.442,0.026-0.974-0.417-1.186c-2.271-1.091-4.576-1.091-6.848,0c-0.443,0.212-0.629,0.743-0.417,1.186   C46.888,32.233,47.416,32.422,47.862,32.207z"/><path d="M40.363,42.386c-0.342,0.352-0.335,0.914,0.016,1.257c1.507,1.468,3.058,2.202,4.613,2.202c1.553,0,3.111-0.734,4.625-2.2   c0.353-0.342,0.362-0.904,0.021-1.257c-0.341-0.352-0.904-0.362-1.257-0.021c-2.315,2.24-4.464,2.242-6.762,0.002   C41.269,42.026,40.706,42.034,40.363,42.386z"/></g></svg>