<svg xmlns="http://www.w3.org/2000/svg" xmlns:xlink="http://www.w3.org/1999/xlink" version="1.1" baseProfile="basic" x="0px" y="0px" viewBox="0 0 90 112.5" xml:space="preserve" class="contact-us-svg"><path d="M38.271,29c-0.146,0-0.292-0.031-0.432-0.099c-1.874-0.899-3.695-0.898-5.567,0c-0.499,0.24-1.095,0.029-1.334-0.469  c-0.239-0.498-0.029-1.095,0.469-1.334c2.421-1.162,4.876-1.162,7.297,0c0.498,0.239,0.708,0.836,0.469,1.334  C39,28.791,38.643,29,38.271,29z"/><path d="M50.497,29c-0.145,0-0.292-0.031-0.432-0.099c-1.874-0.898-3.694-0.898-5.567,0c-0.499,0.24-1.095,0.029-1.334-0.469  c-0.239-0.498-0.029-1.095,0.469-1.334c2.421-1.162,4.875-1.162,7.297,0c0.498,0.239,0.708,0.836,0.469,1.334  C51.228,28.791,50.87,29,50.497,29z"/><path d="M41.437,43.34c-1.659,0-3.315-0.783-4.922-2.35c-0.396-0.386-0.404-1.019-0.019-1.414c0.387-0.396,1.019-0.404,1.414-0.019  c2.436,2.373,4.616,2.374,7.072-0.002c0.396-0.383,1.029-0.374,1.414,0.023c0.384,0.396,0.374,1.03-0.023,1.414  C44.755,42.558,43.094,43.34,41.437,43.34z"/><path d="M39.056,81.752c-1.867,0-3.386-1.519-3.386-3.386s1.519-3.386,3.386-3.386s3.385,1.519,3.385,3.386  S40.922,81.752,39.056,81.752z M39.056,76.98c-0.764,0-1.386,0.622-1.386,1.386s0.622,1.386,1.386,1.386  c0.764,0,1.385-0.622,1.385-1.386S39.819,76.98,39.056,76.98z"/><path d="M76.901,81.271l-6.887-17.542c-0.091-4.387-3.254-8.116-7.588-8.908l-1.015-0.185V38.409  c1.512-0.129,2.707-1.386,2.707-2.931v-8.244c0-1.545-1.195-2.802-2.707-2.931v-4.336C61.412,8.958,52.455,0,41.444,0  c-11.01,0-19.968,8.958-19.968,19.968v4.336c-1.512,0.129-2.707,1.386-2.707,2.931v8.244c0,1.545,1.195,2.802,2.707,2.931v16.227  l-1.015,0.185c-4.398,0.804-7.59,4.632-7.59,9.103v17.364c0,1.919,1.561,3.479,3.479,3.479h13.731v1.554  c0,2.028,1.65,3.679,3.678,3.679h24.441c1.855,0,3.378-1.385,3.628-3.173c0.766-0.093,1.411-0.565,1.744-1.228l10.275,0.105  c0.011,0,0.021,0,0.032,0c1.068,0,2.066-0.523,2.673-1.404C77.166,83.408,77.296,82.277,76.901,81.271z M68.017,63.924v0.189  l0.108,0.274l-6.301,5.678c-0.272-1.762-1.785-3.12-3.622-3.12h-8.908c2.565-3.312,4.627-7.126,6.16-11.366l6.615,1.209  C65.515,57.419,68.017,60.42,68.017,63.924z M61.82,84.591c0,0.146-0.118,0.264-0.264,0.264h-4.154c-0.738,0-1.36-0.528-1.479-1.257  l-0.68-4.157c-0.071-0.434,0.051-0.875,0.336-1.211s0.702-0.528,1.143-0.528h4.834c0.146,0,0.264,0.118,0.264,0.264V84.591z   M36.175,66.945c-2.854-3.363-5.129-7.336-6.779-11.826c2.629-0.949,4.476-3.383,4.644-6.219c1.333,0.888,2.776,1.633,4.321,2.191  c0.994,0.359,2.039,0.539,3.084,0.539c1.044,0,2.089-0.18,3.084-0.539c1.542-0.557,2.978-1.302,4.32-2.193  c0.168,2.837,2.014,5.271,4.644,6.221c-1.65,4.489-3.924,8.462-6.778,11.826H36.175z M26.243,24.258  C36.411,22.812,42.862,20.545,46.858,17c2.852,3.235,5.55,5.346,9.754,7.654l-0.741,8.866c-0.176,2.098-0.706,4.134-1.577,6.05  c-0.459,1.009-1.014,1.983-1.649,2.895c-0.258,0.37-0.539,0.723-0.824,1.073c-0.137,0.009-0.274,0.021-0.414,0.021h-6.006  c-0.552,0-1,0.448-1,1s0.448,1,1,1h4.483c-1.765,1.597-3.781,2.838-6.035,3.653c-1.551,0.561-3.259,0.561-4.809,0  c-6.708-2.424-11.428-8.583-12.022-15.692L26.243,24.258z M56.874,38.434h0.568c-0.26,1.571-1.116,2.938-2.331,3.866  c0.365-0.619,0.707-1.251,1.003-1.902C56.406,39.756,56.652,39.098,56.874,38.434z M54.983,53.461  c-2.406-0.44-4.153-2.536-4.153-4.982v-1.09c0.364-0.313,0.734-0.617,1.078-0.958c0.324-0.32,0.626-0.664,0.929-1.006  c3.366-0.601,6.013-3.278,6.575-6.657V54.27L54.983,53.461z M62.119,27.234v8.244c0,0.527-0.429,0.956-0.956,0.956h-3.737  c0.202-0.904,0.36-1.818,0.438-2.748l0.62-7.408h2.68C61.69,26.278,62.119,26.707,62.119,27.234z M41.444,2  c9.907,0,17.968,8.061,17.968,17.968v4.311H58.65l0.009-0.109c0.033-0.397-0.172-0.776-0.523-0.965  c-4.64-2.487-7.372-4.658-10.439-8.296c-0.182-0.215-0.445-0.344-0.726-0.354c-0.3-0.007-0.555,0.097-0.752,0.297  c-3.696,3.752-10.229,6.083-21.185,7.555c-0.528,0.071-0.908,0.543-0.863,1.075l0.067,0.797h-0.761v-4.311  C23.477,10.061,31.537,2,41.444,2z M20.77,35.478v-8.244c0-0.527,0.429-0.956,0.956-0.956h2.68l0.62,7.408  c0.078,0.933,0.225,1.85,0.427,2.748h-3.727C21.198,36.434,20.77,36.005,20.77,35.478z M23.477,38.434h2.542  c1.173,3.489,3.266,6.595,6.04,8.977v1.067c0,2.446-1.747,4.542-4.154,4.982l-4.428,0.809V38.434z M14.872,81.288V67.177  l6.884,6.203c1.347,1.214,2.12,2.951,2.12,4.765v4.623h-7.525C15.536,82.768,14.872,82.104,14.872,81.288z M30.082,70.624v12.144  h-4.206v-4.623c0-2.379-1.014-4.657-2.781-6.251l-8.223-7.409v-0.561c0-3.505,2.502-6.505,5.949-7.136l6.614-1.209  c1.535,4.247,3.601,8.067,6.171,11.382C31.651,67.043,30.082,68.648,30.082,70.624z M58.201,88H33.76  c-0.925,0-1.678-0.753-1.678-1.679V70.624c0-0.926,0.753-1.679,1.678-1.679h24.441c0.926,0,1.679,0.753,1.679,1.679v5.077h-3.157  c-1.028,0-2.001,0.449-2.667,1.233c-0.665,0.783-0.952,1.815-0.786,2.829l0.68,4.156c0.278,1.7,1.73,2.935,3.453,2.935h2.383  C59.561,87.518,58.939,88,58.201,88z M74.906,83.164c-0.239,0.347-0.6,0.549-1.039,0.539L63.82,83.601v-4.636h1.4  c0.553,0,1-0.447,1-1s-0.447-1-1-1h-1.644c-0.325-0.653-0.95-1.123-1.697-1.231v-3.027l7.025-6.33l6.135,15.626  C75.193,82.394,75.145,82.817,74.906,83.164z"/></svg>